<svg width="80" height="80" viewBox="0 0 80 80" fill="none" xmlns="http://www.w3.org/2000/svg">
<path d="M28.3337 7.6665H38.9998V28.9995H28.3337C25.6817 28.9995 23.1312 28.0123 21.1746 26.2407L20.7908 25.8755C18.7906 23.8752 17.6668 21.1623 17.6667 18.3335C17.6667 15.6813 18.6548 13.131 20.4265 11.1743L20.7908 10.7905C22.7912 8.79014 25.5048 7.6665 28.3337 7.6665Z" fill="#11A3AE" stroke="#212121" stroke-width="2" stroke-linecap="round" stroke-linejoin="round"/>
<path d="M51.667 7.6665C52.8924 7.66654 54.1074 7.87774 55.2588 8.28955L55.749 8.47803C56.8814 8.94708 57.9228 9.60794 58.8291 10.4292L59.209 10.7905C60.0757 11.6573 60.7855 12.6663 61.3086 13.772L61.5215 14.2515C62.0575 15.5455 62.333 16.9328 62.333 18.3335C62.333 19.559 62.1218 20.7738 61.71 21.9253L61.5215 22.4155C61.0525 23.5477 60.3924 24.5894 59.5713 25.4956L59.209 25.8755C58.3424 26.7421 57.334 27.4521 56.2285 27.9751L55.749 28.188C54.455 28.724 53.0677 28.9995 51.667 28.9995H41V7.6665H51.667Z" fill="#11A3AE" stroke="#212121" stroke-width="2" stroke-linecap="round" stroke-linejoin="round"/>
<path d="M51.667 31C52.8924 31 54.1074 31.2112 55.2588 31.623L55.749 31.8115C56.8814 32.2806 57.9228 32.9414 58.8291 33.7627L59.209 34.124C60.0757 34.9908 60.7855 35.9998 61.3086 37.1055L61.5215 37.585C62.0575 38.879 62.333 40.2663 62.333 41.667C62.333 42.8925 62.1218 44.1073 61.71 45.2588L61.5215 45.749C61.0525 46.8812 60.3924 47.9229 59.5713 48.8291L59.209 49.209C58.3424 50.0756 57.334 50.7856 56.2285 51.3086L55.749 51.5215C54.455 52.0575 53.0677 52.333 51.667 52.333C50.4413 52.333 49.2259 52.1219 48.0742 51.71L47.585 51.5215C46.4526 51.0524 45.4102 50.3925 44.5039 49.5713L44.124 49.209C43.2575 48.3424 42.5474 47.334 42.0244 46.2285L41.8115 45.749C41.2755 44.455 41 43.0676 41 41.667L41.0127 41.1426C41.0642 40.0954 41.2699 39.0614 41.623 38.0742L41.8115 37.585C42.2806 36.4525 42.9413 35.4103 43.7627 34.5039L44.124 34.124C44.9908 33.2572 45.9997 32.5475 47.1055 32.0244L47.585 31.8115C48.879 31.2756 50.2664 31 51.667 31Z" fill="#11A3AE" stroke="#212121" stroke-width="2" stroke-linecap="round" stroke-linejoin="round"/>
<path d="M28.3337 54.3335H38.9998V65.0005C38.9997 67.8293 37.876 70.5422 35.8757 72.5425C33.8754 74.5428 31.1626 75.6664 28.3337 75.6665C25.6817 75.6665 23.1312 74.6792 21.1746 72.9077L20.7908 72.5425C18.7906 70.5422 17.6668 67.8293 17.6667 65.0005C17.6667 62.3483 18.6548 59.798 20.4265 57.8413L20.7908 57.4575C22.7912 55.4571 25.5048 54.3335 28.3337 54.3335Z" fill="#11A3AE" stroke="#212121" stroke-width="2" stroke-linecap="round" stroke-linejoin="round"/>
<path d="M28.3337 31H38.9998V52.333H28.3337C25.6817 52.333 23.1312 51.3458 21.1746 49.5742L20.7908 49.209C18.7906 47.2087 17.6668 44.4958 17.6667 41.667C17.6667 39.0148 18.6548 36.4645 20.4265 34.5078L20.7908 34.124C22.6661 32.2487 25.1681 31.1435 27.8044 31.0127L28.3337 31Z" fill="#11A3AE" stroke="#212121" stroke-width="2" stroke-linecap="round" stroke-linejoin="round"/>
</svg>
